<svg width="18" height="18" viewBox="0 0 22 22" fill="none" xmlns="http://www.w3.org/2000/svg">
<path d="M18.6811 13.6447V18.4547C18.6808 19.1353 18.4103 19.7879 17.9291 20.2692C17.4479 20.7504 16.7952 21.0209 16.1147 21.0212H3.54693C3.20866 21.021 2.87376 20.954 2.56146 20.8241C2.24916 20.6941 1.96562 20.5037 1.72714 20.2638C1.48865 20.0239 1.29992 19.7392 1.17179 19.4262C1.04366 19.1131 0.978659 18.7778 0.980514 18.4396V5.8859C0.978501 5.54817 1.04354 5.2134 1.17185 4.90099C1.30017 4.58858 1.48921 4.30474 1.72803 4.06592C1.96685 3.8271 2.25069 3.63806 2.5631 3.50974C2.87551 3.38143 3.21028 3.31639 3.54801 3.3184H8.35693" stroke="white" stroke-width="1.5" stroke-linecap="round" stroke-linejoin="round"/>
<path d="M18.6805 7.74469L14.2551 3.31819M5.4043 15.12V12.7746C5.40647 12.3879 5.5603 12.0163 5.83222 11.7422L16.1585 1.41586C16.2956 1.27731 16.4587 1.16731 16.6385 1.09224C16.8183 1.01717 17.0113 0.978516 17.2061 0.978516C17.401 0.978516 17.5939 1.01717 17.7737 1.09224C17.9536 1.16731 18.1167 1.27731 18.2537 1.41586L20.584 3.74611C20.7225 3.88312 20.8325 4.04627 20.9076 4.22609C20.9827 4.40591 21.0213 4.59883 21.0213 4.79369C21.0213 4.98855 20.9827 5.18148 20.9076 5.36129C20.8325 5.54111 20.7225 5.70425 20.584 5.84127L10.2576 16.1676C9.98305 16.4403 9.6122 16.594 9.22522 16.5955H6.8798C6.68595 16.5958 6.49396 16.5578 6.31481 16.4838C6.13567 16.4097 5.9729 16.3011 5.83583 16.164C5.69876 16.0269 5.59008 15.8642 5.51603 15.685C5.44198 15.5059 5.40401 15.3139 5.4043 15.12Z" stroke="white" stroke-width="1.5" stroke-linecap="round" stroke-linejoin="round"/>
</svg>
