<svg width="15" height="15" viewBox="0 0 15 15" fill="none" xmlns="http://www.w3.org/2000/svg">
<path d="M7.5 0.625C7.66576 0.625 7.82473 0.690848 7.94194 0.808058C8.05915 0.925268 8.125 1.08424 8.125 1.25V2.5C8.125 2.66576 8.05915 2.82473 7.94194 2.94194C7.82473 3.05915 7.66576 3.125 7.5 3.125C7.33424 3.125 7.17527 3.05915 7.05806 2.94194C6.94085 2.82473 6.875 2.66576 6.875 2.5V1.25C6.875 1.08424 6.94085 0.925268 7.05806 0.808058C7.17527 0.690848 7.33424 0.625 7.5 0.625ZM7.5 11.875C7.66576 11.875 7.82473 11.9408 7.94194 12.0581C8.05915 12.1753 8.125 12.3342 8.125 12.5V13.75C8.125 13.9158 8.05915 14.0747 7.94194 14.1919C7.82473 14.3092 7.66576 14.375 7.5 14.375C7.33424 14.375 7.17527 14.3092 7.05806 14.1919C6.94085 14.0747 6.875 13.9158 6.875 13.75V12.5C6.875 12.3342 6.94085 12.1753 7.05806 12.0581C7.17527 11.9408 7.33424 11.875 7.5 11.875ZM0.625 7.5C0.625 7.33424 0.690848 7.17527 0.808058 7.05806C0.925268 6.94085 1.08424 6.875 1.25 6.875H2.5C2.66576 6.875 2.82473 6.94085 2.94194 7.05806C3.05915 7.17527 3.125 7.33424 3.125 7.5C3.125 7.66576 3.05915 7.82473 2.94194 7.94194C2.82473 8.05915 2.66576 8.125 2.5 8.125H1.25C1.08424 8.125 0.925268 8.05915 0.808058 7.94194C0.690848 7.82473 0.625 7.66576 0.625 7.5ZM11.875 7.5C11.875 7.33424 11.9408 7.17527 12.0581 7.05806C12.1753 6.94085 12.3342 6.875 12.5 6.875H13.75C13.9158 6.875 14.0747 6.94085 14.1919 7.05806C14.3092 7.17527 14.375 7.33424 14.375 7.5C14.375 7.66576 14.3092 7.82473 14.1919 7.94194C14.0747 8.05915 13.9158 8.125 13.75 8.125H12.5C12.3342 8.125 12.1753 8.05915 12.0581 7.94194C11.9408 7.82473 11.875 7.66576 11.875 7.5ZM4.40438 10.5956C4.52154 10.7128 4.58737 10.8718 4.58737 11.0375C4.58737 11.2032 4.52154 11.3622 4.40438 11.4794L3.52313 12.3606C3.46547 12.4203 3.39651 12.4679 3.32025 12.5007C3.244 12.5334 3.16199 12.5507 3.079 12.5514C2.99601 12.5521 2.91371 12.5363 2.8369 12.5049C2.76009 12.4735 2.69031 12.4271 2.63163 12.3684C2.57295 12.3097 2.52654 12.2399 2.49511 12.1631C2.46369 12.0863 2.44787 12.004 2.44859 11.921C2.44931 11.838 2.46656 11.756 2.49931 11.6797C2.53207 11.6035 2.57968 11.5345 2.63937 11.4769L3.52062 10.5956C3.63783 10.4785 3.79677 10.4126 3.9625 10.4126C4.12823 10.4126 4.28717 10.4785 4.40438 10.5956ZM12.3606 2.63937C12.4778 2.75658 12.5436 2.91552 12.5436 3.08125C12.5436 3.24698 12.4778 3.40592 12.3606 3.52313L11.4794 4.40438C11.4217 4.46407 11.3528 4.51168 11.2765 4.54444C11.2002 4.57719 11.1182 4.59444 11.0353 4.59516C10.9523 4.59588 10.87 4.58006 10.7932 4.54864C10.7163 4.51721 10.6466 4.4708 10.5879 4.41212C10.5292 4.35344 10.4828 4.28366 10.4514 4.20685C10.4199 4.13004 10.4041 4.04774 10.4048 3.96475C10.4056 3.88176 10.4228 3.79975 10.4556 3.7235C10.4883 3.64724 10.5359 3.57828 10.5956 3.52062L11.4769 2.63937C11.5941 2.52221 11.753 2.45638 11.9187 2.45638C12.0845 2.45638 12.2434 2.52221 12.3606 2.63937ZM10.5956 10.5956C10.7128 10.4785 10.8718 10.4126 11.0375 10.4126C11.2032 10.4126 11.3622 10.4785 11.4794 10.5956L12.3606 11.4769C12.4203 11.5345 12.4679 11.6035 12.5007 11.6797C12.5334 11.756 12.5507 11.838 12.5514 11.921C12.5521 12.004 12.5363 12.0863 12.5049 12.1631C12.4735 12.2399 12.4271 12.3097 12.3684 12.3684C12.3097 12.4271 12.2399 12.4735 12.1631 12.5049C12.0863 12.5363 12.004 12.5521 11.921 12.5514C11.838 12.5507 11.756 12.5334 11.6797 12.5007C11.6035 12.4679 11.5345 12.4203 11.4769 12.3606L10.5956 11.4794C10.4785 11.3622 10.4126 11.2032 10.4126 11.0375C10.4126 10.8718 10.4785 10.7128 10.5956 10.5956ZM2.63937 2.63937C2.75658 2.52221 2.91552 2.45638 3.08125 2.45638C3.24698 2.45638 3.40592 2.52221 3.52313 2.63937L4.40438 3.52062C4.51822 3.6385 4.58122 3.79638 4.5798 3.96025C4.57837 4.12412 4.51264 4.28088 4.39676 4.39676C4.28088 4.51264 4.12412 4.57837 3.96025 4.5798C3.79638 4.58122 3.6385 4.51822 3.52062 4.40438L2.63937 3.52313C2.52221 3.40592 2.45638 3.24698 2.45638 3.08125C2.45638 2.91552 2.52221 2.75658 2.63937 2.63937ZM7.5 4.375C6.6712 4.375 5.87634 4.70424 5.29029 5.29029C4.70424 5.87634 4.375 6.6712 4.375 7.5C4.375 8.3288 4.70424 9.12366 5.29029 9.70971C5.87634 10.2958 6.6712 10.625 7.5 10.625C8.3288 10.625 9.12366 10.2958 9.70971 9.70971C10.2958 9.12366 10.625 8.3288 10.625 7.5C10.625 6.6712 10.2958 5.87634 9.70971 5.29029C9.12366 4.70424 8.3288 4.375 7.5 4.375Z" fill="white"/>
</svg>
