<svg width="26" height="10" viewBox="0 0 26 10" fill="none" xmlns="http://www.w3.org/2000/svg">
<path d="M2.01562 1.66992V0.597656H2.63086V9H2.00391V2.67773C1.89844 2.8125 1.7168 2.88281 1.46484 2.88281H0.0234375V2.31445H1.46484C1.82227 2.31445 2.01562 2.06836 2.01562 1.66992ZM5.42508 7.64648C5.01492 6.85547 4.80984 5.90625 4.80984 4.79883C4.80984 3.10547 5.26102 1.79883 6.19852 1.07227C6.66727 0.708984 7.22977 0.527344 7.88602 0.527344C8.61258 0.527344 9.21023 0.732422 9.67313 1.13672C10.136 1.54688 10.4173 2.08594 10.5227 2.75977H9.90164C9.68484 1.73438 8.98758 1.07812 7.85672 1.07812C6.17508 1.07812 5.36648 2.61914 5.36648 4.69336C5.36648 5.0625 5.4075 5.41992 5.48367 5.77148C5.47195 5.68359 5.47781 5.57812 5.50711 5.44922C5.61844 4.85742 5.89383 4.38281 6.345 4.02539C6.79031 3.66797 7.34109 3.49219 7.99148 3.49219C8.81766 3.49219 9.47391 3.74414 9.97195 4.25391C10.47 4.76367 10.7161 5.4375 10.7161 6.27539C10.7161 7.08984 10.4583 7.76367 9.94266 8.28516C9.42117 8.80664 8.74734 9.07031 7.92117 9.07031C6.77859 9.07031 5.92313 8.56055 5.42508 7.64648ZM9.49148 7.89258C9.88992 7.47656 10.0891 6.9375 10.0891 6.27539C10.0891 5.61328 9.89578 5.07422 9.51492 4.6582C9.1282 4.24805 8.60672 4.04297 7.95633 4.04297C7.29422 4.04297 6.75516 4.25391 6.345 4.66992C5.92898 5.08594 5.72391 5.625 5.72391 6.28711C5.72391 6.94922 5.92313 7.48242 6.32742 7.89844C6.73172 8.31445 7.25906 8.51953 7.90945 8.51953C8.5657 8.51953 9.09305 8.30859 9.49148 7.89258ZM12.5377 4.99219V4.60547C12.5084 2.25 13.7798 0.492188 15.5728 0.527344C17.3365 0.492188 18.6314 2.25 18.6021 4.60547V4.99219C18.6021 6.2168 18.3209 7.20703 17.7642 7.95117C17.2076 8.69531 16.4752 9.07031 15.5728 9.07031C13.774 9.09961 12.5142 7.42383 12.5377 4.99219ZM17.9634 4.96875V4.63477C17.9634 3.56836 17.7466 2.71289 17.313 2.06836C16.8736 1.42383 16.2935 1.10156 15.5728 1.10156C14.8463 1.10156 14.2662 1.42383 13.8326 2.0625C13.3931 2.70703 13.1763 3.5625 13.1763 4.63477V4.96875C13.1763 6.04102 13.3931 6.89648 13.8326 7.53516C14.2662 8.17383 14.8463 8.49609 15.5728 8.49609C16.2935 8.49609 16.8736 8.17383 17.313 7.5293C17.7466 6.89062 17.9634 6.03516 17.9634 4.96875ZM24.5252 5.79492V2.91797H25.1346V9H24.5252V6.36914C24.0389 6.72656 23.3475 6.9375 22.6268 6.9375C21.1737 6.9375 20.3592 6.26367 20.3592 4.83398V2.91797H20.9686V4.72852C20.9686 5.88281 21.5545 6.36914 22.7323 6.36914C23.453 6.36914 24.0506 6.17578 24.5252 5.79492Z" fill="white"/>
</svg>
