<svg width="25" height="10" viewBox="0 0 25 10" fill="none" xmlns="http://www.w3.org/2000/svg">
<path d="M2.01562 1.66992V0.597656H2.63086V9H2.00391V2.67773C1.89844 2.8125 1.7168 2.88281 1.46484 2.88281H0.0234375V2.31445H1.46484C1.82227 2.31445 2.01562 2.06836 2.01562 1.66992ZM5.42508 7.64648C5.01492 6.85547 4.80984 5.90625 4.80984 4.79883C4.80984 3.10547 5.26102 1.79883 6.19852 1.07227C6.66727 0.708984 7.22977 0.527344 7.88602 0.527344C8.61258 0.527344 9.21023 0.732422 9.67313 1.13672C10.136 1.54688 10.4173 2.08594 10.5227 2.75977H9.90164C9.68484 1.73438 8.98758 1.07812 7.85672 1.07812C6.17508 1.07812 5.36648 2.61914 5.36648 4.69336C5.36648 5.0625 5.4075 5.41992 5.48367 5.77148C5.47195 5.68359 5.47781 5.57812 5.50711 5.44922C5.61844 4.85742 5.89383 4.38281 6.345 4.02539C6.79031 3.66797 7.34109 3.49219 7.99148 3.49219C8.81766 3.49219 9.47391 3.74414 9.97195 4.25391C10.47 4.76367 10.7161 5.4375 10.7161 6.27539C10.7161 7.08984 10.4583 7.76367 9.94266 8.28516C9.42117 8.80664 8.74734 9.07031 7.92117 9.07031C6.77859 9.07031 5.92313 8.56055 5.42508 7.64648ZM9.49148 7.89258C9.88992 7.47656 10.0891 6.9375 10.0891 6.27539C10.0891 5.61328 9.89578 5.07422 9.51492 4.6582C9.1282 4.24805 8.60672 4.04297 7.95633 4.04297C7.29422 4.04297 6.75516 4.25391 6.345 4.66992C5.92898 5.08594 5.72391 5.625 5.72391 6.28711C5.72391 6.94922 5.92313 7.48242 6.32742 7.89844C6.73172 8.31445 7.25906 8.51953 7.90945 8.51953C8.5657 8.51953 9.09305 8.30859 9.49148 7.89258ZM16.4869 4.66992C17.0611 4.76953 17.5298 5.00977 17.8873 5.38477C18.2447 5.76562 18.4205 6.23438 18.4205 6.80273C18.4205 7.4707 18.1509 8.01562 17.6119 8.4375C17.0728 8.85938 16.358 9.07031 15.4673 9.07031C14.5767 9.07031 13.8619 8.85938 13.3228 8.4375C12.7838 8.01562 12.5142 7.4707 12.5142 6.80273C12.5142 6.24023 12.6959 5.77148 13.0533 5.39062C13.4107 5.01562 13.8736 4.77539 14.4478 4.66992C13.9498 4.58203 13.5455 4.36523 13.2349 4.00781C12.9244 3.65039 12.7662 3.22266 12.7662 2.71289C12.7662 2.06836 13.0123 1.54102 13.5103 1.13672C14.0025 0.732422 14.6529 0.527344 15.4673 0.527344C16.2818 0.527344 16.9322 0.732422 17.4302 1.13672C17.9224 1.54102 18.1685 2.06836 18.1685 2.71289C18.1685 3.2168 18.0103 3.64453 17.6998 4.00195C17.3834 4.35938 16.9791 4.58203 16.4869 4.66992ZM13.9732 1.52344C13.5923 1.82812 13.4048 2.22656 13.4048 2.71289C13.4048 3.19922 13.5982 3.59766 13.9791 3.89648C14.3599 4.20117 14.8521 4.35352 15.4673 4.35352C16.0826 4.35352 16.5806 4.20117 16.9615 3.89648C17.3423 3.59766 17.5298 3.19922 17.5298 2.71289C17.5298 2.22656 17.3423 1.82812 16.9615 1.52344C16.5806 1.21875 16.0826 1.06641 15.4673 1.06641C14.8521 1.06641 14.3541 1.21875 13.9732 1.52344ZM13.8091 8.0332C14.2369 8.36719 14.7935 8.53125 15.4673 8.53125C16.1412 8.53125 16.6978 8.36719 17.1255 8.0332C17.5533 7.70508 17.7701 7.27734 17.7701 6.75586C17.7701 6.24023 17.5533 5.8125 17.1255 5.47852C16.6978 5.14453 16.1412 4.98047 15.4673 4.98047C14.7877 4.98047 14.2369 5.14453 13.8091 5.47852C13.3814 5.8125 13.1646 6.23438 13.1646 6.75586C13.1646 7.27734 13.3814 7.70508 13.8091 8.0332ZM24.326 5.79492V2.91797H24.9354V9H24.326V6.36914C23.8397 6.72656 23.1483 6.9375 22.4276 6.9375C20.9745 6.9375 20.16 6.26367 20.16 4.83398V2.91797H20.7694V4.72852C20.7694 5.88281 21.3553 6.36914 22.533 6.36914C23.2537 6.36914 23.8514 6.17578 24.326 5.79492Z" fill="white"/>
</svg>
