<svg width="26" height="10" viewBox="0 0 26 10" fill="none" xmlns="http://www.w3.org/2000/svg">
<path d="M2.01562 1.66992V0.597656H2.63086V9H2.00391V2.67773C1.89844 2.8125 1.7168 2.88281 1.46484 2.88281H0.0234375V2.31445H1.46484C1.82227 2.31445 2.01562 2.06836 2.01562 1.66992ZM8.75906 4.66992C9.33328 4.76953 9.80203 5.00977 10.1595 5.38477C10.5169 5.76562 10.6927 6.23438 10.6927 6.80273C10.6927 7.4707 10.4231 8.01562 9.88406 8.4375C9.345 8.85938 8.63016 9.07031 7.73953 9.07031C6.84891 9.07031 6.13406 8.85938 5.595 8.4375C5.05594 8.01562 4.78641 7.4707 4.78641 6.80273C4.78641 6.24023 4.96805 5.77148 5.32547 5.39062C5.68289 5.01562 6.14578 4.77539 6.72 4.66992C6.22195 4.58203 5.81766 4.36523 5.50711 4.00781C5.19656 3.65039 5.03836 3.22266 5.03836 2.71289C5.03836 2.06836 5.28445 1.54102 5.7825 1.13672C6.27469 0.732422 6.92508 0.527344 7.73953 0.527344C8.55398 0.527344 9.20438 0.732422 9.70242 1.13672C10.1946 1.54102 10.4407 2.06836 10.4407 2.71289C10.4407 3.2168 10.2825 3.64453 9.97195 4.00195C9.65555 4.35938 9.25125 4.58203 8.75906 4.66992ZM6.24539 1.52344C5.86453 1.82812 5.67703 2.22656 5.67703 2.71289C5.67703 3.19922 5.87039 3.59766 6.25125 3.89648C6.63211 4.20117 7.1243 4.35352 7.73953 4.35352C8.35477 4.35352 8.85281 4.20117 9.23367 3.89648C9.61453 3.59766 9.80203 3.19922 9.80203 2.71289C9.80203 2.22656 9.61453 1.82812 9.23367 1.52344C8.85281 1.21875 8.35477 1.06641 7.73953 1.06641C7.1243 1.06641 6.62625 1.21875 6.24539 1.52344ZM6.08133 8.0332C6.50906 8.36719 7.0657 8.53125 7.73953 8.53125C8.41336 8.53125 8.97 8.36719 9.39773 8.0332C9.82547 7.70508 10.0423 7.27734 10.0423 6.75586C10.0423 6.24023 9.82547 5.8125 9.39773 5.47852C8.97 5.14453 8.41336 4.98047 7.73953 4.98047C7.05984 4.98047 6.50906 5.14453 6.08133 5.47852C5.65359 5.8125 5.4368 6.23438 5.4368 6.75586C5.4368 7.27734 5.65359 7.70508 6.08133 8.0332ZM12.5377 4.99219V4.60547C12.5084 2.25 13.7798 0.492188 15.5728 0.527344C17.3365 0.492188 18.6314 2.25 18.6021 4.60547V4.99219C18.6021 6.2168 18.3209 7.20703 17.7642 7.95117C17.2076 8.69531 16.4752 9.07031 15.5728 9.07031C13.774 9.09961 12.5142 7.42383 12.5377 4.99219ZM17.9634 4.96875V4.63477C17.9634 3.56836 17.7466 2.71289 17.313 2.06836C16.8736 1.42383 16.2935 1.10156 15.5728 1.10156C14.8463 1.10156 14.2662 1.42383 13.8326 2.0625C13.3931 2.70703 13.1763 3.5625 13.1763 4.63477V4.96875C13.1763 6.04102 13.3931 6.89648 13.8326 7.53516C14.2662 8.17383 14.8463 8.49609 15.5728 8.49609C16.2935 8.49609 16.8736 8.17383 17.313 7.5293C17.7466 6.89062 17.9634 6.03516 17.9634 4.96875ZM24.5252 5.79492V2.91797H25.1346V9H24.5252V6.36914C24.0389 6.72656 23.3475 6.9375 22.6268 6.9375C21.1737 6.9375 20.3592 6.26367 20.3592 4.83398V2.91797H20.9686V4.72852C20.9686 5.88281 21.5545 6.36914 22.7323 6.36914C23.453 6.36914 24.0506 6.17578 24.5252 5.79492Z" fill="white"/>
</svg>
