<svg width="20" height="10" viewBox="0 0 20 10" fill="none" xmlns="http://www.w3.org/2000/svg">
<path d="M5.15039 1.17773H0.0703125V0.597656H5.83008V1.05469L1.57031 9H0.890625L5.15039 1.17773ZM10.0071 9.07031C9.27469 9.07031 8.67703 8.86523 8.21414 8.45508C7.75125 8.05078 7.46414 7.51172 7.35867 6.83789H7.97977C8.19656 7.86328 8.88797 8.51953 10.0305 8.51953C10.5755 8.51953 11.0442 8.36133 11.4309 8.04492C11.8118 7.72852 12.093 7.30078 12.2747 6.76758C12.4563 6.23438 12.5442 5.61914 12.5442 4.91016C12.5442 4.55859 12.5032 4.19531 12.4212 3.82617C12.4388 3.94336 12.427 4.05469 12.3977 4.1543C12.2864 4.74609 12.011 5.21484 11.5657 5.57227C11.1145 5.92969 10.5638 6.10547 9.91336 6.10547C9.08719 6.10547 8.43094 5.85352 7.93289 5.34375C7.43484 4.83398 7.18875 4.16016 7.18875 3.32227C7.18875 2.50781 7.44656 1.83398 7.96805 1.3125C8.48367 0.791016 9.1575 0.527344 9.98367 0.527344C11.1263 0.527344 11.97 1.04297 12.4798 1.95703C12.8899 2.74805 13.095 3.69141 13.095 4.79883C13.095 6.49219 12.638 7.79883 11.7005 8.52539C11.2259 8.88867 10.6634 9.07031 10.0071 9.07031ZM9.94852 5.55469C10.6106 5.55469 11.1497 5.34375 11.5657 4.92773C11.9759 4.51172 12.1809 3.97266 12.1809 3.31055C12.1809 2.64844 11.9817 2.11523 11.5774 1.69922C11.1731 1.2832 10.6458 1.07812 9.99539 1.07812C9.33914 1.07812 8.8118 1.2832 8.41336 1.69922C8.01492 2.11523 7.8157 2.66016 7.8157 3.32227C7.8157 3.98438 8.00906 4.52344 8.39578 4.93359C8.77664 5.34961 9.29813 5.55469 9.94852 5.55469ZM19.024 5.79492V2.91797H19.6334V9H19.024V6.36914C18.5377 6.72656 17.8463 6.9375 17.1255 6.9375C15.6724 6.9375 14.858 6.26367 14.858 4.83398V2.91797H15.4673V4.72852C15.4673 5.88281 16.0533 6.36914 17.231 6.36914C17.9517 6.36914 18.5494 6.17578 19.024 5.79492Z" fill="white"/>
</svg>
