<svg width="13" height="13" viewBox="0 0 13 13" fill="none" xmlns="http://www.w3.org/2000/svg">
<path d="M6.49983 0.245117C5.3684 0.245325 4.25824 0.552662 3.28778 1.13434C2.31733 1.71603 1.52297 2.55023 0.989454 3.54798C0.455937 4.54573 0.203269 5.66959 0.258403 6.79968C0.313537 7.92977 0.674405 9.02369 1.30251 9.96477C1.93062 10.9058 2.80241 11.6588 3.82488 12.1432C4.84735 12.6277 5.98215 12.8255 7.10823 12.7155C8.23431 12.6056 9.30943 12.1921 10.2189 11.519C11.1284 10.846 11.8381 9.93865 12.2723 8.89387C12.4855 8.38137 11.9748 7.86637 11.4611 8.07512C10.5806 8.43179 9.60289 8.46859 8.69805 8.17913C7.79321 7.88968 7.01843 7.29226 6.50842 6.49075C5.9984 5.68925 5.78542 4.73435 5.90648 3.79209C6.02755 2.84982 6.47501 1.97978 7.17108 1.33324L7.2192 1.28324C7.56358 0.889492 7.28983 0.250117 6.74545 0.250117H6.5792L6.5367 0.246367L6.49983 0.245117Z" fill="white"/>
</svg>
