<svg width="22" height="22" viewBox="0 0 30 30" fill="none" xmlns="http://www.w3.org/2000/svg">
<path d="M25.7148 13.9282H16.072V4.2853C16.072 4.00114 15.9591 3.72861 15.7582 3.52768C15.5572 3.32675 15.2847 3.21387 15.0006 3.21387C14.7164 3.21387 14.4439 3.32675 14.2429 3.52768C14.042 3.72861 13.9291 4.00114 13.9291 4.2853V13.9282H4.28627C4.00211 13.9282 3.72959 14.041 3.52866 14.242C3.32773 14.4429 3.21484 14.7154 3.21484 14.9996C3.21484 15.2837 3.32773 15.5563 3.52866 15.7572C3.72959 15.9581 4.00211 16.071 4.28627 16.071H13.9291V25.7139C13.9291 25.998 14.042 26.2705 14.2429 26.4715C14.4439 26.6724 14.7164 26.7853 15.0006 26.7853C15.2847 26.7853 15.5572 26.6724 15.7582 26.4715C15.9591 26.2705 16.072 25.998 16.072 25.7139V16.071H25.7148C25.999 16.071 26.2715 15.9581 26.4725 15.7572C26.6734 15.5563 26.7863 15.2837 26.7863 14.9996C26.7863 14.7154 26.6734 14.4429 26.4725 14.242C26.2715 14.041 25.999 13.9282 25.7148 13.9282Z" fill="#F59D0E"/>
</svg>
