<svg width="40" height="40" viewBox="0 0 40 40" fill="none" xmlns="http://www.w3.org/2000/svg">
<path d="M19.9503 40V37.5H35.9629C36.3462 37.5 36.6987 37.34 37.0204 37.02C37.342 36.7 37.502 36.3467 37.5004 35.96V4.04C37.5004 3.655 37.3404 3.30167 37.0204 2.98C36.7004 2.65833 36.347 2.49833 35.9604 2.5H19.9529V0H35.9629C37.1129 0 38.0729 0.385833 38.8429 1.1575C39.6129 1.92917 39.9987 2.89 40.0004 4.04V35.9625C40.0004 37.1125 39.6145 38.0733 38.8429 38.845C38.0712 39.6167 37.1112 40.0017 35.9629 40H19.9503ZM18.1754 28.8475L16.4179 27.0475L22.2179 21.25H0.0478516V18.75H22.2179L16.4179 12.95L18.1729 11.155L27.0204 20L18.1754 28.8475Z" fill="white"/>
</svg>
