<svg width="13" height="13" viewBox="0 0 13 13" fill="none" xmlns="http://www.w3.org/2000/svg">
<path fill-rule="evenodd" clip-rule="evenodd" d="M4.625 0.25C4.97968 0.249981 5.3303 0.325429 5.65357 0.471335C5.97685 0.61724 6.26538 0.830262 6.5 1.09625C6.73462 0.830262 7.02315 0.61724 7.34643 0.471335C7.6697 0.325429 8.02032 0.249981 8.375 0.25H8.6875C8.93614 0.25 9.1746 0.348772 9.35041 0.524587C9.52623 0.700403 9.625 0.93886 9.625 1.1875V1.5C9.625 1.95563 9.50313 2.3825 9.29062 2.75H10.875C11.2065 2.75 11.5245 2.8817 11.7589 3.11612C11.9933 3.35054 12.125 3.66848 12.125 4V5.875C12.125 6.09442 12.0672 6.30996 11.9575 6.49998C11.8478 6.69 11.69 6.84779 11.5 6.9575V10.25C11.5 10.7473 11.3025 11.2242 10.9508 11.5758C10.5992 11.9275 10.1223 12.125 9.625 12.125H3.375C2.87772 12.125 2.40081 11.9275 2.04917 11.5758C1.69754 11.2242 1.5 10.7473 1.5 10.25V6.9575C1.30998 6.84779 1.15219 6.69 1.04248 6.49998C0.932766 6.30996 0.875006 6.09442 0.875 5.875V4C0.875 3.66848 1.0067 3.35054 1.24112 3.11612C1.47554 2.8817 1.79348 2.75 2.125 2.75H3.70937C3.49015 2.3699 3.37483 1.93879 3.375 1.5V1.1875C3.375 0.93886 3.47377 0.700403 3.64959 0.524587C3.8254 0.348772 4.06386 0.25 4.3125 0.25H4.625ZM10.25 7.125H7.125V10.875H9.625L9.69813 10.8706C9.83764 10.8542 9.96754 10.7912 10.0669 10.6919C10.1662 10.5925 10.2292 10.4626 10.2456 10.3231L10.25 10.25V7.125ZM5.875 7.125H2.75V10.25C2.75002 10.4031 2.80622 10.5508 2.90795 10.6652C3.00967 10.7796 3.14984 10.8527 3.30187 10.8706L3.375 10.875H5.875V7.125ZM10.875 4H7.125V5.875H10.875V4ZM5.875 4H2.125V5.875H5.875V4ZM4.625 1.5C4.625 1.83152 4.7567 2.14946 4.99112 2.38388C5.22554 2.6183 5.54348 2.75 5.875 2.75C5.875 2.41848 5.7433 2.10054 5.50888 1.86612C5.27446 1.6317 4.95652 1.5 4.625 1.5ZM8.375 1.5C8.04348 1.5 7.72554 1.6317 7.49112 1.86612C7.2567 2.10054 7.125 2.41848 7.125 2.75C7.45652 2.75 7.77446 2.6183 8.00888 2.38388C8.2433 2.14946 8.375 1.83152 8.375 1.5Z" fill="white"/>
</svg>
