<svg width="20" height="20" viewBox="0 0 24 24" fill="none" xmlns="http://www.w3.org/2000/svg">
<path d="M22.7148 10.9282H13.072V1.2853C13.072 1.00114 12.9591 0.728613 12.7582 0.527681C12.5572 0.326749 12.2847 0.213867 12.0006 0.213867C11.7164 0.213867 11.4439 0.326749 11.2429 0.527681C11.042 0.728613 10.9291 1.00114 10.9291 1.2853V10.9282H1.28627C1.00211 10.9282 0.72959 11.041 0.528658 11.242C0.327726 11.4429 0.214844 11.7154 0.214844 11.9996C0.214844 12.2837 0.327726 12.5563 0.528658 12.7572C0.72959 12.9581 1.00211 13.071 1.28627 13.071H10.9291V22.7139C10.9291 22.998 11.042 23.2705 11.2429 23.4715C11.4439 23.6724 11.7164 23.7853 12.0006 23.7853C12.2847 23.7853 12.5572 23.6724 12.7582 23.4715C12.9591 23.2705 13.072 22.998 13.072 22.7139V13.071H22.7148C22.999 13.071 23.2715 12.9581 23.4725 12.7572C23.6734 12.5563 23.7863 12.2837 23.7863 11.9996C23.7863 11.7154 23.6734 11.4429 23.4725 11.242C23.2715 11.041 22.999 10.9282 22.7148 10.9282Z" fill="white"/>
</svg>
